<svg width="24" height="24" viewBox="0 0 24 24" fill="none" xmlns="http://www.w3.org/2000/svg">
  <path
    d="M19.4 12a7.4 7.4 0 0 0-.08-1.08l2.06-1.6a.5.5 0 0 0 .12-.64l-1.95-3.37a.5.5 0 0 0-.6-.22l-2.42.98a7.43 7.43 0 0 0-1.87-1.08l-.36-2.57A.5.5 0 0 0 13.8 2h-3.6a.5.5 0 0 0-.5.42l-.36 2.57c-.66.27-1.29.64-1.87 1.08l-2.42-.98a.5.5 0 0 0-.6.22L2.5 8.68a.5.5 0 0 0 .12.64l2.06 1.6c-.05.35-.08.7-.08 1.08s.03.73.08 1.08l-2.06 1.6a.5.5 0 0 0-.12.64l1.95 3.37a.5.5 0 0 0 .6.22l2.42-.98c.58.44 1.21.81 1.87 1.08l.36 2.57a.5.5 0 0 0 .5.42h3.6a.5.5 0 0 0 .5-.42l.36-2.57c.66-.27 1.29-.64 1.87-1.08l2.42.98a.5.5 0 0 0 .6-.22l1.95-3.37a.5.5 0 0 0-.12-.64l-2.06-1.6c.05-.35.08-.7.08-1.08Z"
    stroke="currentColor"
    stroke-width="1.6"
    stroke-linecap="round"
    stroke-linejoin="round"
  />
  <path
    d="M15.5 12a3.5 3.5 0 1 1-7 0 3.5 3.5 0 0 1 7 0Z"
    stroke="currentColor"
    stroke-width="1.6"
    stroke-linecap="round"
    stroke-linejoin="round"
  />
</svg>
